<svg width="15" height="13" viewBox="0 0 15 13" fill="none" xmlns="http://www.w3.org/2000/svg">
<path d="M7.91471 1.75802L12.9478 10.463C13.0181 10.5826 13.034 10.7127 12.9953 10.8534C12.9566 10.9941 12.8739 11.1032 12.7473 11.1805C12.6699 11.2298 12.582 11.2544 12.4835 11.2544H2.43847C2.29074 11.2544 2.16588 11.2016 2.06389 11.0961C1.96189 10.9906 1.91089 10.8675 1.91089 10.7268C1.91089 10.6283 1.93199 10.5404 1.9742 10.463L7.00728 1.75802C7.07762 1.6314 7.18314 1.54875 7.32382 1.51006C7.46451 1.47137 7.59816 1.48719 7.72478 1.55754C7.80919 1.60678 7.8725 1.6736 7.91471 1.75802ZM3.3459 10.1992H11.5761L7.46099 3.07696L3.3459 10.1992ZM6.93342 8.61651H7.98857V9.67166H6.93342V8.61651ZM6.93342 4.92348H7.98857V7.56136H6.93342V4.92348Z" fill="#DC2626"/>
</svg>
