<svg width="15" height="13" viewBox="0 0 15 13" fill="none" xmlns="http://www.w3.org/2000/svg">
<path d="M7.46076 11.6448C6.74326 11.6448 6.05741 11.5076 5.40321 11.2333C4.77716 10.966 4.21968 10.5879 3.7308 10.099C3.24191 9.61012 2.86381 9.05265 2.59651 8.42659C2.32217 7.77239 2.185 7.08654 2.185 6.36904C2.185 5.65154 2.32217 4.96569 2.59651 4.31149C2.86381 3.68543 3.24191 3.12796 3.7308 2.63907C4.21968 2.15019 4.77716 1.77209 5.40321 1.50478C6.05741 1.23044 6.74326 1.09327 7.46076 1.09327C8.17827 1.09327 8.86412 1.23044 9.51831 1.50478C10.1444 1.77209 10.7018 2.15019 11.1907 2.63907C11.6796 3.12796 12.0577 3.68543 12.325 4.31149C12.5994 4.96569 12.7365 5.65154 12.7365 6.36904C12.7365 7.08654 12.5994 7.77239 12.325 8.42659C12.0577 9.05265 11.6796 9.61012 11.1907 10.099C10.7018 10.5879 10.1444 10.966 9.51831 11.2333C8.86412 11.5076 8.17827 11.6448 7.46076 11.6448ZM7.46076 10.5897C8.22751 10.5897 8.93798 10.3962 9.59217 10.0093C10.2253 9.6365 10.7282 9.13354 11.101 8.50045C11.4879 7.84625 11.6814 7.13578 11.6814 6.36904C11.6814 5.6023 11.4879 4.89183 11.101 4.23763C10.7282 3.60454 10.2253 3.10158 9.59217 2.72876C8.93798 2.34187 8.22751 2.14843 7.46076 2.14843C6.69402 2.14843 5.98355 2.34187 5.32935 2.72876C4.69626 3.10158 4.19331 3.60454 3.82048 4.23763C3.4336 4.89183 3.24015 5.6023 3.24015 6.36904C3.24015 7.13578 3.4336 7.84625 3.82048 8.50045C4.19331 9.13354 4.69626 9.6365 5.32935 10.0093C5.98355 10.3962 6.69402 10.5897 7.46076 10.5897Z" fill="#2563EB"/>
</svg>
