<!-- Google Icon Placeholder - Replace with actual Google icon -->
<svg width="24" height="24" viewBox="0 0 24 24" fill="none" xmlns="http://www.w3.org/2000/svg">
<path d="M22.56 12.25C22.56 11.47 22.49 10.72 22.36 10H12V14.26H17.92C17.66 15.63 16.84 16.77 15.64 17.5V20.74H19.28C21.36 18.8 22.56 15.92 22.56 12.25Z" fill="#4285F4"/>
<path d="M12 23C15.24 23 17.95 21.92 19.28 20.74L15.64 17.5C14.64 18.13 13.32 18.5 12 18.5C8.87 18.5 6.22 16.5 5.27 13.75H1.46V17.08C2.78 19.69 7.13 23 12 23Z" fill="#34A853"/>
<path d="M5.27 13.75C5.05 13.12 4.92 12.44 4.92 11.75S5.05 10.38 5.27 9.75V6.42H1.46C0.68 7.97 0.25 9.81 0.25 11.75S0.68 15.53 1.46 17.08L5.27 13.75Z" fill="#FBBC05"/>
<path d="M12 4.75C13.77 4.75 15.35 5.36 16.6 6.55L19.82 3.33C17.95 1.59 15.24 0.5 12 0.5C7.13 0.5 2.78 3.81 1.46 6.42L5.27 9.75C6.22 7 8.87 4.75 12 4.75Z" fill="#EA4335"/>
</svg>
